<svg xmlns="http://www.w3.org/2000/svg" viewBox="0 0 128 40"><rect width="128" height="40" rx="4"/><path d="M27 19.8a5.61 5.61 0 012.7-4.8 5.79 5.79 0 00-4.6-2.4c-1.9-.2-3.7 1.1-4.7 1.1s-2.5-1.1-4.1-1.1a6.39 6.39 0 00-5.1 3.1c-2.2 3.8-.5 9.4 1.6 12.5 1 1.5 2.2 3.2 3.9 3.1s2.1-1 4-1 2.5 1 4.1 1 2.8-1.5 3.8-3a14.54 14.54 0 001.7-3.5 5.69 5.69 0 01-3.3-5zm-3.1-9.2a5.61 5.61 0 001.2-4 5.61 5.61 0 00-3.6 1.9 5.15 5.15 0 00-1.3 3.8 4.8 4.8 0 003.7-1.7zm25.9 20.5h-2.2l-1.2-3.8h-4.2L41 31.1h-2.1L43 18.2h2.6zM46 25.7l-1.1-3.3-.6-2.5h-.1c-.1.6-.3 1.4-.6 2.5l-1.1 3.3zm14.5.7a5.5 5.5 0 01-1.3 3.7 3.79 3.79 0 01-2.9 1.2 2.7 2.7 0 01-2.6-1.3v4.9h-2.1v-10c0-1 0-2-.1-3.1h1.8v1.5h.1a3.39 3.39 0 013.1-1.7 3.9 3.9 0 012.8 1.3 5.43 5.43 0 011.2 3.5zm-2.1 0a3.19 3.19 0 00-.7-2.2 2 2 0 00-1.8-.9 1.71 1.71 0 00-1.3.5 2.38 2.38 0 00-.9 1.3v2.2a2.51 2.51 0 00.6 1.7 1.89 1.89 0 001.6.7 2 2 0 001.8-.9 4.26 4.26 0 00.7-2.4zm12.8 0a5.5 5.5 0 01-1.3 3.7 3.79 3.79 0 01-2.9 1.2 2.7 2.7 0 01-2.6-1.3v4.9h-2.1v-10c0-1 0-2-.1-3.1H64v1.5h.1a3.39 3.39 0 013.1-1.7 3.9 3.9 0 012.8 1.3 5.43 5.43 0 011.2 3.5zm-2.1 0a3.79 3.79 0 00-.6-2.2 2.3 2.3 0 00-1.8-.9 1.7 1.7 0 00-1.4.5 1.78 1.78 0 00-.8 1.3 1.76 1.76 0 00-.1.6v1.6A2.51 2.51 0 0065 29a1.89 1.89 0 001.6.7 2 2 0 001.8-.9 4.26 4.26 0 00.7-2.4zm14 1.1a3.3 3.3 0 01-1.1 2.7 5.2 5.2 0 01-3.5 1.1 6.82 6.82 0 01-3.4-.8l.5-1.7a6.07 6.07 0 003 .8 3 3 0 001.8-.5 1.59 1.59 0 00.7-1.4 1.78 1.78 0 00-.6-1.4 7.45 7.45 0 00-1.7-1c-2.3-.8-3.4-2-3.4-3.7a3.42 3.42 0 011.2-2.6 4.82 4.82 0 013.1-1 5.94 5.94 0 012.9.6l-.5 1.7a4.78 4.78 0 00-2.4-.6 2.62 2.62 0 00-1.8.6 1.6 1.6 0 00-.05 2.26l.15.14 1.9 1a6.74 6.74 0 012.5 1.6 3.19 3.19 0 01.7 2.2zm6.9-4.1h-2.3v4.5c0 1.1.4 1.7 1.2 1.7h.9v1.6l-1.6.2a2.4 2.4 0 01-1.9-.7 3.57 3.57 0 01-.7-2.5v-4.8h-1.3v-1.6h1.4v-1.7l2-.6v2.3H90zm10.3 3a5.24 5.24 0 01-1.3 3.5 4.7 4.7 0 01-6.6.1 4.78 4.78 0 01-1.3-3.5 5.24 5.24 0 011.3-3.5 4.41 4.41 0 013.4-1.4 4.51 4.51 0 013.3 1.4 4.88 4.88 0 011.2 3.4zm-2.2.1a5.54 5.54 0 00-.5-2.3 2.31 2.31 0 00-1.9-1.1 2.11 2.11 0 00-1.9 1.1 4.42 4.42 0 00-.6 2.3 3.79 3.79 0 00.6 2.2 2.11 2.11 0 001.9 1.1 2 2 0 001.8-1.1 4 4 0 00.6-2.2zm8.9-2.9h-.7a1.9 1.9 0 00-1.7.8 3.47 3.47 0 00-.5 1.8v4.9h-2v-6.4c0-1-.1-2-.1-2.9h1.8v1.8a3.31 3.31 0 011.1-1.5 2.53 2.53 0 011.5-.5h.5zm9.2 2.4a3.07 3.07 0 01-.1 1h-6.2a3.44 3.44 0 00.9 2.1 3.48 3.48 0 002.1.6 6.86 6.86 0 002.5-.4l.3 1.4a7.52 7.52 0 01-3.1.6 4.18 4.18 0 01-3.4-1.3 4.81 4.81 0 01-1.3-3.4 5.13 5.13 0 011.2-3.5 4 4 0 013.3-1.5 3.42 3.42 0 013 1.5 5.49 5.49 0 01.8 2.9zm-2-.5a2.17 2.17 0 00-.4-1.6 1.69 1.69 0 00-1.6-.9 1.81 1.81 0 00-1.6.9 2.9 2.9 0 00-.7 1.6zM45.3 10.3a3.3 3.3 0 01-1 2.6 4.08 4.08 0 01-2.7.8h-1.5V7.3h1.8a3.67 3.67 0 012.5.7 3.18 3.18 0 01.9 2.3zm-1 0a2.42 2.42 0 00-.6-1.7A2.42 2.42 0 0042 8h-.9v4.7h.7a2.37 2.37 0 001.8-.6 2.66 2.66 0 00.7-1.8zm6.7 1a2.42 2.42 0 01-.6 1.7 2.11 2.11 0 01-1.7.7 2 2 0 01-1.6-.7 2.42 2.42 0 01-.6-1.7 2.51 2.51 0 01.6-1.7 2.62 2.62 0 011.7-.7 2.19 2.19 0 011.6.7 2.42 2.42 0 01.6 1.7zm-1 0a2 2 0 00-.3-1.1 1.1 1.1 0 00-.9-.5 1.39 1.39 0 00-1 .5 3.75 3.75 0 00-.2 1.1 3.75 3.75 0 00.2 1.1 1.2 1.2 0 001 .6 1 1 0 00.9-.6 2 2 0 00.3-1.1zM58.6 9l-1.4 4.6h-.9l-.6-2a8.74 8.74 0 01-.4-1.5 8.74 8.74 0 01-.4 1.5l-.6 2h-.9L52 9h1.1l.5 2.2.3 1.5c.1-.4.2-.9.4-1.5l.6-2.2h.9l.6 2.2.3 1.5h.1a3.9 3.9 0 01.3-1.5l.5-2.2zm5.3 4.6h-1V11q0-1.2-.9-1.2a1 1 0 00-1.1.89.74.74 0 000 .21v2.7h-1V9h.9v.7h.1l.5-.5.9-.3a2.16 2.16 0 011.1.4 2.5 2.5 0 01.5 1.6zm2.8 0h-1V6.9h1zm6-2.3a2.42 2.42 0 01-.6 1.7 2.11 2.11 0 01-1.7.7 1.89 1.89 0 01-1.6-.7 2.42 2.42 0 01-.6-1.7 2.51 2.51 0 01.6-1.7 2.4 2.4 0 011.7-.7 2.19 2.19 0 011.6.7 2.42 2.42 0 01.6 1.7zm-1.1 0a3.75 3.75 0 00-.2-1.1 1.39 1.39 0 00-1-.5 1.1 1.1 0 00-.9.5 2.21 2.21 0 000 2.2 1 1 0 001.34.46 1 1 0 00.46-.46 2 2 0 00.3-1.1zm6 2.3h-.9v-.5a1.7 1.7 0 01-1.4.6 1.29 1.29 0 01-1-.4 1.88 1.88 0 01-.4-.9 1.61 1.61 0 01.7-1.3 3.89 3.89 0 012-.5.8.8 0 00-.69-.9h-.21a2.11 2.11 0 00-1.2.3l-.2-.7a3.29 3.29 0 011.5-.4 1.69 1.69 0 011.8 1.9v1.7a4 4 0 000 1.1zM76.5 12v-.7c-1.1 0-1.6.3-1.6.9s0 .5.2.6l.5.2a.91.91 0 00.6-.3.5.5 0 00.3-.5zm6.9 1.6h-.9v-.7a1.62 1.62 0 01-1.5.8 1.49 1.49 0 01-1.3-.7 2.08 2.08 0 01-.6-1.6 2.37 2.37 0 01.6-1.8 1.68 1.68 0 011.3-.7 1.41 1.41 0 011.3.6V6.9h1v5.5c0 .4.1.8.1 1.2zm-1.1-1.9v-1.1a.89.89 0 00-.4-.6.89.89 0 00-.7-.3 1 1 0 00-.8.5 1.49 1.49 0 00-.4 1.1 1.78 1.78 0 00.3 1.1 1.46 1.46 0 00.9.5.81.81 0 00.8-.4 1.12 1.12 0 00.3-.8zm9.8-.4a2.42 2.42 0 01-.6 1.7 2.19 2.19 0 01-1.7.7 1.89 1.89 0 01-1.6-.7 2.42 2.42 0 01-.6-1.7 2.51 2.51 0 01.6-1.7 2.4 2.4 0 011.7-.7 2.2 2.2 0 012.21 2.19 1.48 1.48 0 01-.01.21zm-1.1 0a2 2 0 00-.3-1.1 1.1 1.1 0 00-1.53-.27 1.15 1.15 0 00-.27.27 2.21 2.21 0 000 2.2 1 1 0 001.34.46 1 1 0 00.46-.46 2 2 0 00.3-1.1zm6.5 2.3h-1V11q0-1.2-.9-1.2a.82.82 0 00-.7.3 1.12 1.12 0 00-.3.8v2.7h-1v-3.3c0-.4-.1-.8-.1-1.3h.9v.7a1.21 1.21 0 01.5-.5 1.62 1.62 0 01.9-.3 1.83 1.83 0 011.1.4 2.12 2.12 0 01.5 1.6zm6.9-3.8h-1.1V12c0 .6.1.9.5.9h.5v.8h-.8a1 1 0 01-.9-.4 1.71 1.71 0 01-.3-1.2V9.8h-.7V9h.7v-.8l1-.3V9h1.1zm5.4 3.8h-1.1V11q0-1.2-.9-1.2a1 1 0 00-1 .7v3.1h-1V6.9h1v2.8a1.59 1.59 0 011.4-.8 1.49 1.49 0 011 .4 2.08 2.08 0 01.6 1.6zm5.5-2.5v.5h-3.1a1.39 1.39 0 00.5 1 1.3 1.3 0 001 .3l1.2-.2v.7a3.23 3.23 0 01-1.5.3 2.42 2.42 0 01-1.7-.6 2.51 2.51 0 01-.6-1.7 2.42 2.42 0 01.6-1.7 1.89 1.89 0 011.6-.8 1.62 1.62 0 011.5.8 2 2 0 01.5 1.4zm-1-.3a1.19 1.19 0 00-.2-.8.89.89 0 00-.8-.4 1.23 1.23 0 00-.8.4 1.32 1.32 0 00-.3.8z" fill="#fff"/></svg>