<svg xmlns="http://www.w3.org/2000/svg" viewBox="0 0 112 112">
    <defs>
        <linearGradient id="a" x1="55.68" y1="113.84" x2="55.68" y2="2.48" gradientTransform="matrix(1 0 0 -1 0 114)"
            gradientUnits="userSpaceOnUse">
            <stop offset="0" stop-color="#60b4e7" />
            <stop offset="1" stop-color="#6461e0" />
        </linearGradient>
    </defs>
    <path
        d="M86.56.16H24.8A24.8 24.8 0 000 25v61.73a24.79 24.79 0 0024.8 24.79h61.76a24.79 24.79 0 0024.8-24.79V25A24.8 24.8 0 0086.56.16z"
        fill-rule="evenodd" fill="url(#a)" />
    <path
        d="M12.85 42.59A29.81 29.81 0 009 48.81a29.09 29.09 0 00-2.21 7.24c-2 13.89 6.47 16.1 7.91 16.37 7.4.86 12.85-3.17 15.42-5.64a4.43 4.43 0 007.59 2.59A7.07 7.07 0 0039 67.5c1.2 4.38 5 2.89 5.51 2.7 2.15-.81 4.39-3.81 6-6.32 1 3.45 3 7.14 6.71 6.74 2.25-.05 7.91-6.07 8.43-5.29s.66 1.85.63 3.63a1.53 1.53 0 002 1.69c1-.27 1.6-2.22 2.64-3.92a17.36 17.36 0 012.22-3c.41-.43 2.24-2.34 3.54-1.69a3.08 3.08 0 011.51 2.71c.1.73.1 1.52.14 2.37 0 2.95 1.34 3.37 1.73 3.48 3.2.86 3.4-5.17 5.75-7.4.22-.23 2.27-2.35 3.44 1.11 1.7 6.25 6.9 8.59 13.91 5.11a10.66 10.66 0 002.27-1.42.71.71 0 00.28-.55.73.73 0 00-.09-.32.69.69 0 00-.93-.27c-.72.4-3.11 1.2-3.86 1.47-2.83.46-6.3.36-8-3.78A15.53 15.53 0 0090.92 61c-1-1.34-4.25-2.92-7.29-.06a11.06 11.06 0 00-1.87 2.33c-.21.32-.4.65-.58 1a.65.65 0 000-.13c-.26-.93-1.12-4.35-4.7-4.91C76 59.19 74 59 71.21 62a26.53 26.53 0 00-2.51 3.29 5 5 0 00-.45-1.42c-2.33-3.6-5.88-.73-7.4.35-3.42 2.4-5 5.64-7.08-1.71a29 29 0 01-.65-3.16c2.07-3.53 6.3-14.28 3.88-21.48-.16-.46-1-2.78-3-2.63-.29 0-2.6-.22-3.87 6.25a70.6 70.6 0 00-.63 17c0 .28.09.82.2 1.54-2 3.43-4.63 7.33-6.23 7.51-2.08.24-1.5-1.68-2.77-6a4 4 0 00-4.07-3.06c-1.55.06-3.18.47-5.41 2.91-3.63 4-11.89 9.94-17.8 6.19-.64-.5-3.84-3.11-2.66-10.95a25.23 25.23 0 011.9-6.25 27.49 27.49 0 013.2-5.38c6.07-7.47 11.33-8.34 12.37-8.3 2.66 0 3.35 3.45 3.35 3.42a1.1 1.1 0 002.19-.21 5.84 5.84 0 00-.45-2.17A6.56 6.56 0 0031 34.61a5.81 5.81 0 00-3.35-.92c-3.85 0-9.39 2.65-14.8 8.9zm39.78 10.9c0-12.16 1.51-14.92 1.63-14.71.59 1.09 1.85 7.94-1.61 15.43-.01-.21-.01-.48-.02-.72zm-20 11.95c0-3.22 4-5.24 5.12-3a3.86 3.86 0 01.21.6 13.68 13.68 0 01-.96 2.84 3.18 3.18 0 01-2.62 2.05c-.96 0-1.8-.84-1.78-2.49z"
        fill="#fff" fill-rule="evenodd" />
</svg>