<svg xmlns="http://www.w3.org/2000/svg" viewBox="0 0 128 40"><defs><linearGradient id="a" x1="16.39" y1="35.46" x2="21.99" y2="12.47" gradientTransform="matrix(1 0 0 -1 0 42)" gradientUnits="userSpaceOnUse"><stop offset="0" stop-color="#006884"/><stop offset="1" stop-color="#8ad1d0"/></linearGradient><linearGradient id="b" x1="9.44" y1="32.16" x2="24.71" y2="23.91" gradientTransform="matrix(1 0 0 -1 0 42)" gradientUnits="userSpaceOnUse"><stop offset="0" stop-color="#24bbb6"/><stop offset="1" stop-color="#dbe692"/></linearGradient><linearGradient id="c" x1="27.1" y1="18.38" x2="27.1" y2="26.33" gradientTransform="matrix(1 0 0 -1 0 42)" gradientUnits="userSpaceOnUse"><stop offset="0" stop-color="#fcc072"/><stop offset="1" stop-color="#f58a5b"/></linearGradient><linearGradient id="d" x1="12.36" y1="8.76" x2="24.42" y2="21.03" gradientTransform="matrix(1 0 0 -1 0 42)" gradientUnits="userSpaceOnUse"><stop offset="0" stop-color="#712b8f"/><stop offset="1" stop-color="#ea1d27"/></linearGradient></defs><rect width="128" height="40" rx="4"/><path d="M9.8 19.6V9.1a1.1 1.1 0 011-1.1l1 .2 19.3 10.6a.8.8 0 110 1.6L11.8 31l-1 .2a1.1 1.1 0 01-1-1.1z" fill-rule="evenodd" fill="url(#a)"/><path d="M22.3 19.7L10.6 8h.2l1 .2L26 16z" fill-rule="evenodd" fill="url(#b)"/><path d="M25.9 23.2l-3.6-3.5L26 16l5.1 2.8a.8.8 0 110 1.6z" fill-rule="evenodd" fill="url(#c)"/><path d="M10.7 31.2h.1l11.5-11.5 3.6 3.5L11.8 31l-1 .2z" fill-rule="evenodd" fill="url(#d)"/><path d="M71.1 33.9a5 5 0 01-1.1-1.6l1.6-.6.5.7a2.09 2.09 0 001.6.8 2 2 0 001.7-.8 2.58 2.58 0 00.5-1.7v-.6c-1.1 1.4-3.7 1.2-5.1-.3a4.3 4.3 0 01.1-5.9c1.5-1.5 3.7-1.7 5-.3v-.7h1.8v7.6a3.85 3.85 0 01-4 4.3 3.86 3.86 0 01-2.6-.9zm41.9.4l1.6-4-2.9-6.9h1.7l2.1 4.9 2.1-4.9h1.7l-4.6 10.9zm-8.1-3.8a3.34 3.34 0 01-.8-1.9 2 2 0 01.7-1.6 3.4 3.4 0 012.8-1.1 4.86 4.86 0 011.8.4 1.59 1.59 0 00-1.59-1.61h-.21a1.91 1.91 0 00-1.7 1l-1.5-.6a3.2 3.2 0 013.2-2 4.2 4.2 0 012.6 1 4 4 0 01.8 2.7V31h-1.7v-.8a2.47 2.47 0 01-.9.8 3.18 3.18 0 01-1.4.2 3.14 3.14 0 01-2.1-.7zm-53.3-3.6a4.2 4.2 0 114.2 4.2 4.2 4.2 0 01-4.2-4.2zm9 0a4.2 4.2 0 114.2 4.2 4.2 4.2 0 01-4.2-4.2zm-20.3 2.2a6.6 6.6 0 01.1-9.2A6.31 6.31 0 0145 18a6.19 6.19 0 014.4 1.8l-1.2 1.3a4.49 4.49 0 00-6.36 0 1.85 1.85 0 00-.14.14 4.8 4.8 0 000 6.6 4.6 4.6 0 006.5.3.94.94 0 01.1-.1 4.13 4.13 0 00.9-2.3H45V23.9h5.9a6.56 6.56 0 01.1 1.4 5.79 5.79 0 01-1.6 4 5.4 5.4 0 01-4.3 1.7 6.81 6.81 0 01-4.8-1.9zm42.3.7a4.41 4.41 0 010-5.9 3.59 3.59 0 015.07-.41 2.42 2.42 0 01.33.31 8 8 0 011.1 2l-5.5 2.3a2 2 0 001.9 1.3 2.3 2.3 0 002.1-1.2l1.4 1-.5.6a4.21 4.21 0 01-5.9 0zM93 31V19.9h3.6a3.51 3.51 0 013.7 3.29v.11a3.4 3.4 0 01-3.4 3.3h-2.2V31zm8.4 0V19.9h1.7V31zm-22.6-.2V18.4h1.9v12.4zm30.5-3.1a3.76 3.76 0 00-1.5-.4c-1.2 0-1.9.6-1.9 1.3a1.3 1.3 0 001.4 1.1 2.1 2.1 0 002-2zm-51.2-.8a2.5 2.5 0 00-2.3-2.6 2.41 2.41 0 00-2.31 2.49v.11a2.4 2.4 0 002.3 2.5 2.4 2.4 0 002.3-2.5zm9 0a2.3 2.3 0 10-4.6 0 2.3 2.3 0 104.6 0zm8.9.7v-.3c0-.2.1-.3.1-.5s-.1-.2-.1-.4 0-.3-.1-.4a2.2 2.2 0 00-2.1-1.7 2.56 2.56 0 000 5.1 2.39 2.39 0 002.2-1.8zm7.3-.9l3.7-1.6a1.79 1.79 0 00-1.6-.8 2.3 2.3 0 00-2.1 2.4zm15.3-3.4a1.69 1.69 0 00-1.69-1.71H94.7v3.5h2.1a1.81 1.81 0 001.8-1.8z" fill="#fff" fill-rule="evenodd"/><path fill="#fff" fill-rule="evenodd" d="M114.3 32.3h-.1v-.1h.1-.1v.1h.1zm.3-.1h-.1.1v.1-.1z"/><path d="M38.9 10.1a2.8 2.8 0 012.69-2.91h.31a2.5 2.5 0 012.2 1.1l-.8.5A1.79 1.79 0 0041.9 8a2 2 0 00-2 2v.1a2 2 0 002 2 2.48 2.48 0 001.3-.5v-.9h-1.7v-.9h2.7v2.1a3 3 0 01-2.3 1.1 2.9 2.9 0 01-3-2.8zm6.5 2.8V7.2h3.8v.9h-2.8v1.5h2.8v.8h-2.8V12h2.8v.9zm6.6 0V8.1h-1.7v-.9h4.4v.9H53v4.8zm6.1 0V7.2h1v5.7zm3.7 0V8.1h-1.7v-.9h4.4v.9h-1.7v4.8zm5.9-2.8A2.9 2.9 0 1173.4 9a2.75 2.75 0 010 1.07 2.9 2.9 0 11-5.7 1.07 2.75 2.75 0 010-1.04zm4.7 0a1.9 1.9 0 00-3.7-.87 1.83 1.83 0 000 .87 1.8 1.8 0 001.59 2h.21a1.9 1.9 0 001.9-1.9zm6.1 2.8l-2.9-4.1v4.1h-1V7.2h1l2.9 3.9V7.2h.9v5.7z" fill="#fff"/></svg>