<svg xmlns="http://www.w3.org/2000/svg" viewBox="0 0 65 65">
    <defs>
        <linearGradient id="a" x1="32.5" y1="65" x2="32.5" gradientUnits="userSpaceOnUse">
            <stop offset="0" stop-color="#3eb4eb" />
            <stop offset="1" stop-color="#675ce7" />
        </linearGradient>
    </defs>
    <path
        d="M46.25 35A1.65 1.65 0 0043 35a10.46 10.46 0 01-21 0 1.65 1.65 0 00-3.29 0 13.75 13.75 0 0027.5 0m-5.27-16.85c-1.39 0-2.52 1.73-2.52 3.85s1.13 3.85 2.52 3.85 2.52-1.72 2.52-3.85-1.13-3.85-2.52-3.85m-16.94 0c-1.39 0-2.52 1.73-2.52 3.85s1.13 3.85 2.52 3.85 2.52-1.72 2.52-3.85-1.1-3.85-2.52-3.85m8.5-14.86A29.21 29.21 0 1061.71 32.5 29.24 29.24 0 0032.5 3.29m0 61.71A32.5 32.5 0 1165 32.5 32.54 32.54 0 0132.5 65"
        fill-rule="evenodd" fill="url(#a)" />
</svg>